<?xml version="1.0" encoding="UTF-8"?>
<!DOCTYPE svg PUBLIC "-//W3C//DTD SVG 1.1//EN" "http://www.w3.org/Graphics/SVG/1.1/DTD/svg11.dtd">
<!-- Creator: CorelDRAW 2020 (64-Bit) -->
<svg xmlns="http://www.w3.org/2000/svg" xml:space="preserve" width="210mm" height="210mm" version="1.1" style="shape-rendering:geometricPrecision; text-rendering:geometricPrecision; image-rendering:optimizeQuality; fill-rule:evenodd; clip-rule:evenodd"
viewBox="0 0 21000 21000"
 xmlns:xlink="http://www.w3.org/1999/xlink"
 xmlns:xodm="http://www.corel.com/coreldraw/odm/2003">
 <defs>
  <style type="text/css">
   <![CDATA[
    .fil0 {fill:#001B94}
   ]]>
  </style>
 </defs>
 <g id="Слой_x0020_1">
  <metadata id="CorelCorpID_0Corel-Layer"/>
  <ellipse class="fil0" cx="6548" cy="19421" rx="793" ry="810"/>
  <ellipse class="fil0" cx="6548" cy="16913" rx="793" ry="810"/>
  <ellipse class="fil0" cx="6514" cy="14361" rx="793" ry="810"/>
  <ellipse class="fil0" cx="3962" cy="14361" rx="793" ry="810"/>
  <ellipse class="fil0" cx="1480" cy="14361" rx="793" ry="810"/>
  <ellipse class="fil0" cx="8272" cy="12603" rx="793" ry="810"/>
  <ellipse class="fil0" cx="10030" cy="10845" rx="793" ry="810"/>
  <ellipse class="fil0" cx="8272" cy="12603" rx="793" ry="810"/>
  <ellipse class="fil0" cx="11866" cy="9095" rx="793" ry="810"/>
  <ellipse class="fil0" cx="13590" cy="7285" rx="793" ry="810"/>
  <ellipse class="fil0" cx="13521" cy="4769" rx="793" ry="810"/>
  <ellipse class="fil0" cx="11039" cy="4769" rx="793" ry="810"/>
  <ellipse class="fil0" cx="8556" cy="4769" rx="793" ry="810"/>
  <ellipse class="fil0" cx="6074" cy="4734" rx="793" ry="810"/>
  <ellipse class="fil0" cx="16107" cy="4769" rx="793" ry="810"/>
  <ellipse class="fil0" cx="16107" cy="7285" rx="793" ry="810"/>
  <ellipse class="fil0" cx="16107" cy="9768" rx="793" ry="810"/>
  <ellipse class="fil0" cx="16107" cy="12284" rx="793" ry="810"/>
  <ellipse class="fil0" cx="16141" cy="14836" rx="793" ry="810"/>
  <ellipse class="fil0" cx="17899" cy="3028" rx="793" ry="810"/>
  <ellipse class="fil0" cx="19744" cy="1166" rx="793" ry="810"/>
 </g>
</svg>
